<svg xmlns="http://www.w3.org/2000/svg" xmlns:xlink="http://www.w3.org/1999/xlink" viewBox="0 0 54.53 63.87"><defs><style>.cls-1,.cls-2{fill-rule:evenodd;}.cls-1{fill:url(#linear-gradient);}.cls-2{fill:url(#linear-gradient-2);}.cls-3{fill:#fff;}</style><linearGradient id="linear-gradient" x1="-287" y1="1916.07" x2="-232.47" y2="1916.07" gradientTransform="matrix(1, 0, 0, -1, 287, 1948)" gradientUnits="userSpaceOnUse"><stop offset="0" stop-color="#f50"/><stop offset="0.41" stop-color="#f50"/><stop offset="0.58" stop-color="#ff2000"/><stop offset="1" stop-color="#ff2000"/></linearGradient><linearGradient id="linear-gradient-2" x1="-281.39" y1="1942.25" x2="-237.11" y2="1942.25" gradientTransform="matrix(1, 0, 0, -1, 287, 1948)" gradientUnits="userSpaceOnUse"><stop offset="0" stop-color="#ff452a"/><stop offset="1" stop-color="#ff2000"/></linearGradient></defs><g id="Layer_2" data-name="Layer 2"><g id="Layer_1-2" data-name="Layer 1"><path class="cls-1" d="M52.62,15.32l1.5-3.67S52.21,9.6,49.89,7.29s-7.22-1-7.22-1L37.08,0H17.45L11.86,6.33S7,5,4.64,7.29.41,11.65.41,11.65l1.5,3.67L0,20.77S5.61,42,6.27,44.6c1.3,5.1,2.18,7.08,5.86,9.67S22.49,61.35,23.58,62s2.46,1.84,3.69,1.84S29.86,62.71,31,62s7.77-5.18,11.45-7.76S47,49.7,48.26,44.6c.66-2.6,6.27-23.83,6.27-23.83Z"/><path class="cls-2" d="M42.67,6.33,37.08,0H17.45L11.86,6.33S7,5,4.64,7.29c0,0,6.54-.59,8.79,3.06,0,0,6.07,1.16,6.88,1.16a21.13,21.13,0,0,0,4.23-1.23,10,10,0,0,1,2.73-.55,9.86,9.86,0,0,1,2.72.55,21.13,21.13,0,0,0,4.23,1.23c.82,0,6.88-1.16,6.88-1.16,2.25-3.65,8.8-3.06,8.8-3.06C47.58,5,42.67,6.33,42.67,6.33Z"/><path class="cls-3" d="M41.74,18.67a4.13,4.13,0,0,0-.61-.13c-1.31-.13-2.61-.3-3.93-.36a9.52,9.52,0,0,0-2.44.21c-1.26.28-2.49.69-3.73,1.05a1,1,0,0,0-.84,1.31c.28,1.62.58,3.24.87,4.86.24,1.36.48,2.71.69,4.08.15.95-.1,1.35-1,1.52a27,27,0,0,1-4.08.54,11.09,11.09,0,0,1-2.8-.54c-.88-.2-1.15-.6-1-1.49.21-1.34.43-2.68.67-4,.27-1.49.58-3,.86-4.46.23-1.2,0-1.57-1.16-1.91a19.75,19.75,0,0,0-3.93-1,39.93,39.93,0,0,0-5.12.16c-.41,0-.81.1-1.22.16l0,.18c.22.1.45.22.68.31,2.2.84,4.42,1.64,6.6,2.54,2.38,1,2.68,1.9,1.5,4.19C21.13,26.92,20.53,27.93,20,29c-.75,1.46-.66,1.79.68,2.69,1.53,1,3.08,2,4.59,3C27,35.82,27,36.37,25.6,37.9a19.29,19.29,0,0,1-7,4.59,2.63,2.63,0,0,1-2.76-.39,5.91,5.91,0,0,1-2.48-3.6,4.38,4.38,0,0,1,.1-1.76,13.11,13.11,0,0,1,.76-2.21,2,2,0,0,0-.37-2.39L10.9,29q-1.8-1.91-3.61-3.78c-1.36-1.42-1.63-2.71-.52-4.33,2-2.94,4.17-5.77,6.31-8.63a1.09,1.09,0,0,1,.86-.26c1.86.3,3.72.65,5.58,1a5.87,5.87,0,0,0,2.87-.41l2.53-.86a7.18,7.18,0,0,1,4.84,0c.61.21,1.24.36,1.83.63a8.08,8.08,0,0,0,5.29.33c1.28-.28,2.57-.5,3.86-.7a1,1,0,0,1,.79.3q3.07,4.08,6.07,8.23a4.92,4.92,0,0,1,.8,1.88,3,3,0,0,1-1,2.7q-3.15,3.29-6.26,6.6c-.23.24-.44.51-.65.76a1.72,1.72,0,0,0-.24,1.82c.31.84.61,1.68.89,2.52a3.32,3.32,0,0,1-.34,2.89,9.48,9.48,0,0,1-1.21,1.67c-1.39,1.5-2.36,1.67-4.23.86a19,19,0,0,1-6.41-4.39c-1.33-1.41-1.29-2,.3-3S32.41,32.7,34,31.66c1.31-.87,1.4-1.23.67-2.64-.47-.91-1-1.8-1.47-2.7a11.78,11.78,0,0,1-.66-1.39,2,2,0,0,1,1.11-2.85c1.5-.67,3-1.25,4.58-1.85,1.17-.46,2.36-.9,3.54-1.35Z"/><path class="cls-3" d="M27.28,41.33a5.54,5.54,0,0,1,.88.26c2.48,1.15,5,2.3,7.43,3.49.67.33.62.79-.08,1.34-1.43,1.11-2.87,2.2-4.29,3.31-1,.8-2,1.64-3,2.45a1.2,1.2,0,0,1-1.79,0c-2.46-1.93-4.91-3.85-7.36-5.79-.74-.58-.72-1,.12-1.44,2.43-1.16,4.87-2.28,7.32-3.41A5.65,5.65,0,0,1,27.28,41.33Z"/></g></g></svg>