<svg xmlns="http://www.w3.org/2000/svg" viewBox="0 0 53 53"><defs><style>.cls-1{fill:#de5833;}.cls-1,.cls-10,.cls-2,.cls-6,.cls-9{fill-rule:evenodd;}.cls-2{fill:#ddd;}.cls-10,.cls-3{fill:#fff;}.cls-4{fill:#3ca82b;}.cls-5{fill:#4cba3c;}.cls-6{fill:#fc3;}.cls-7{opacity:0.8;}.cls-8,.cls-9{fill:#14307e;}</style></defs><g id="Layer_2" data-name="Layer 2"><g id="Layer_1-2" data-name="Layer 1"><path class="cls-1" d="M26.5,53A26.5,26.5,0,1,0,0,26.5,26.49,26.49,0,0,0,26.5,53Z"/><path class="cls-2" d="M30.23,46.27c0-.21.05-.25-.61-1.56-1.75-3.51-3.51-8.44-2.71-11.63C27.06,32.5,25.26,11.66,24,11S20.85,9,19.27,8.78a10.11,10.11,0,0,0-2.69,0c-.14,0-.15.28,0,.33a3.56,3.56,0,0,1,1.59,1c.07.09,0,.23-.14.23a3.3,3.3,0,0,0-1.91.91.13.13,0,0,0,.12.22c1.88-.37,3.79-.19,4.92.84a.12.12,0,0,1-.06.21c-9.81,2.67-7.87,11.2-5.25,21.68,2.21,8.87,3.11,12,3.43,13.1a.61.61,0,0,0,.37.4C23.07,49,30.23,49,30.23,46.79Z"/><path class="cls-3" d="M31.57,48.24a16.93,16.93,0,0,1-4.86.67,19.5,19.5,0,0,1-5.85-.78c-.64-2-2.55-8.06-4.44-15.81-.06-.25-.13-.5-.19-.75h0c-2.25-9.17-4.08-16.67,6-19a.12.12,0,0,0,.08-.2C21.13,11,19,10.52,16.23,11.46a.11.11,0,0,1-.14-.17,5.93,5.93,0,0,1,2.1-1.55.14.14,0,0,0,0-.25,11.8,11.8,0,0,0-1.56-.37c-.15,0-.17-.29,0-.31,3.87-.52,7.92.64,10,3.2,0,0,0,0,.07.05,7.44,1.59,8,13.35,7.11,13.88a3.49,3.49,0,0,1-1.42,0c-2.9-.33-8.62-1-3.9,7.84a.15.15,0,0,1-.11.22c-2.66.41.75,8.77,3.26,14.27Z"/><path class="cls-4" d="M34.9,37.56c-.57-.27-2.75,1.29-4.19,2.49-.3-.43-.87-.74-2.15-.51-1.13.19-1.75.46-2,.93-1.78-.67-4.76-1.71-5.48-.71s.19,6.28,1.24,7c.55.35,3.16-1.33,4.53-2.48.22.31.57.48,1.3.47,1.1,0,2.89-.29,3.17-.8,0,0,0-.07,0-.11a16.46,16.46,0,0,0,4.42,1C37.2,44.57,35.56,37.86,34.9,37.56Z"/><path class="cls-5" d="M30.84,40.2a2.07,2.07,0,0,1,.15.34,6,6,0,0,1,.28,2.77c-.24.44-1.84.66-2.83.67s-1.21-.34-1.41-.9a8.48,8.48,0,0,1-.24-2.1c0-.9.29-1.21,1.8-1.45,1.11-.18,1.7,0,2,.39,1.59-1.19,4.23-2.86,4.49-2.55,1.29,1.52,1.45,5.14,1.17,6.6-.09.47-4.35-.47-4.35-1C31.94,40.85,31.39,40.26,30.84,40.2Zm-9.33-.66c.35-.55,3.18.13,4.73.82a6.89,6.89,0,0,0,.19,3.15c.15.5-3.57,2.72-4.05,2.34S20.78,40.7,21.51,39.54Z"/><path class="cls-6" d="M22.89,28.33c.22-1,1.29-2.87,5.1-2.83,1.92,0,4.31,0,5.9-.18A21.36,21.36,0,0,0,39.16,24c1.64-.63,2.23-.49,2.43-.11s0,1.12-.61,1.78c-1.1,1.25-3.08,2.23-6.57,2.52s-5.81-.65-6.8.87c-.43.66-.1,2.21,3.28,2.7,4.56.66,8.31-.79,8.77.08s-2.2,2.66-6.77,2.7a13.63,13.63,0,0,1-8.44-2.41A3.93,3.93,0,0,1,22.89,28.33Z"/><g class="cls-7"><path class="cls-8" d="M28.71,17.44a1.93,1.93,0,0,1,1.74-.74,1.83,1.83,0,0,1,1.66.78.09.09,0,0,1-.12.14l-.07,0a3.4,3.4,0,0,0-1.47-.34,2.94,2.94,0,0,0-1.54.35C28.81,17.65,28.64,17.54,28.71,17.44ZM18.29,18a3.25,3.25,0,0,1,2.1-.21c.11,0,.18-.09.1-.16a2.45,2.45,0,0,0-2.39-.28A2.1,2.1,0,0,0,16.61,19c0,.12.25.13.32,0A2.51,2.51,0,0,1,18.29,18Z"/><path class="cls-9" d="M31.24,23.15a1.43,1.43,0,1,1,1.43-1.43A1.43,1.43,0,0,1,31.24,23.15Zm1-1.9a.38.38,0,1,0-.37.37A.38.38,0,0,0,32.25,21.25ZM21.71,22.71A1.68,1.68,0,1,1,20,21,1.67,1.67,0,0,1,21.71,22.71Zm-.5-.55a.43.43,0,0,0-.41-.45.44.44,0,0,0-.46.41.06.06,0,0,0,0,0,.43.43,0,0,0,.45.41A.43.43,0,0,0,21.21,22.16Z"/></g><path class="cls-10" d="M26.5,48.76A22.26,22.26,0,1,0,4.24,26.5,22.26,22.26,0,0,0,26.5,48.76Zm0,2.07A24.33,24.33,0,1,0,2.17,26.5,24.33,24.33,0,0,0,26.5,50.83Z"/><path class="cls-10" d="M26.5,48.44A21.95,21.95,0,1,0,4.55,26.5a21.95,21.95,0,0,0,22,21.94ZM50.79,26.5A24.29,24.29,0,1,1,26.5,2.2,24.3,24.3,0,0,1,50.79,26.5Z"/></g></g></svg>