<svg xmlns="http://www.w3.org/2000/svg" viewBox="0 0 30.67 29.7"><g id="Layer_2" data-name="Layer 2"><g id="Layer_1-2" data-name="Layer 1"><path d="M13,21.71c-4-.48-6.74-3.32-6.74-7a6.83,6.83,0,0,1,1.44-4.19,6.33,6.33,0,0,1,.12-3.95,5.34,5.34,0,0,1,3.77,1.35,12.27,12.27,0,0,1,3.8-.54,12.59,12.59,0,0,1,3.75.51,5.37,5.37,0,0,1,3.77-1.32A6.44,6.44,0,0,1,23,10.48a6.59,6.59,0,0,1,1.47,4.22c0,3.69-2.79,6.47-6.8,7a4.45,4.45,0,0,1,1.71,3.75v3.11A1.11,1.11,0,0,0,21,29.59a15.2,15.2,0,0,0,9.68-14.2A15.34,15.34,0,1,0,0,15.39,15.12,15.12,0,0,0,9.91,29.62a1.14,1.14,0,0,0,1.59-1.05v-2.4a3.75,3.75,0,0,1-1.44.3c-2,0-3.14-1.08-4-3.08C5.75,22.58,5.39,22.1,4.7,22c-.36,0-.48-.18-.48-.36,0-.36.6-.63,1.2-.63.87,0,1.62.54,2.4,1.65a2.37,2.37,0,0,0,2,1.26,2.49,2.49,0,0,0,1.92-1c.51-.51.9-1,1.26-1.26"/></g></g></svg>