<svg xmlns="http://www.w3.org/2000/svg" viewBox="0 0 42 42"><defs><style>.cls-1{fill:#fff;}</style></defs><g id="Layer_2" data-name="Layer 2"><g id="Layer_1-2" data-name="Layer 1"><circle class="cls-1" cx="21" cy="21" r="21"/><path d="M18.63,27.86c-3.95-.48-6.73-3.32-6.73-7a6.8,6.8,0,0,1,1.43-4.19,6.33,6.33,0,0,1,.12-3.95,5.39,5.39,0,0,1,3.78,1.34,12.19,12.19,0,0,1,3.8-.54,12.48,12.48,0,0,1,3.74.51,5.45,5.45,0,0,1,3.78-1.31,6.43,6.43,0,0,1,.09,3.92,6.58,6.58,0,0,1,1.46,4.22c0,3.69-2.78,6.47-6.79,7A4.47,4.47,0,0,1,25,31.57v3.12a1.11,1.11,0,0,0,1.65,1.05,15.19,15.19,0,0,0,9.67-14.2,15.33,15.33,0,1,0-30.66,0,15.12,15.12,0,0,0,9.91,14.23,1.14,1.14,0,0,0,1.59-1.05v-2.4a4,4,0,0,1-1.44.3c-2,0-3.15-1.08-4-3.08-.33-.81-.69-1.29-1.38-1.38-.36,0-.48-.18-.48-.36,0-.36.6-.63,1.2-.63.87,0,1.61.54,2.39,1.65a2.37,2.37,0,0,0,2,1.25,2.48,2.48,0,0,0,1.92-.95c.51-.51.89-1,1.25-1.26"/></g></g></svg>