<svg xmlns="http://www.w3.org/2000/svg" viewBox="0 0 29 20"><defs><style>.cls-1{fill:#f03;}.cls-2{fill:#fff;}</style></defs><g id="Layer_2" data-name="Layer 2"><g id="Layer_1-2" data-name="Layer 1"><path class="cls-1" d="M14.48,20s9.09,0,11.34-.6a3.61,3.61,0,0,0,2.56-2.53A35.9,35.9,0,0,0,29,10a35.37,35.37,0,0,0-.62-6.84A3.55,3.55,0,0,0,25.82.61C23.57,0,14.48,0,14.48,0S5.42,0,3.18.61A3.64,3.64,0,0,0,.6,3.14,36.52,36.52,0,0,0,0,10a37.07,37.07,0,0,0,.6,6.89A3.71,3.71,0,0,0,3.18,19.4C5.42,20,14.48,20,14.48,20Z"/><path class="cls-2" d="M19,10,11.5,5.75v8.5Z"/></g></g></svg>