<svg xmlns="http://www.w3.org/2000/svg" viewBox="0 0 81 81"><defs><style>.cls-1{fill:#eaeef3;}</style></defs><g id="Layer_2" data-name="Layer 2"><g id="Layer_1-2" data-name="Layer 1"><rect width="81" height="81"/><path class="cls-1" d="M60.62,37.74q8.67,7.89,9,15.21Q70,60,64.29,66A20.39,20.39,0,0,1,50,72.38q-7,.34-10.84-3.31a12,12,0,0,1-4-8.19,14.21,14.21,0,0,1,1.21-6.24,20.65,20.65,0,0,1,4.44-6.35q2.37-2.48,11-8.36Q46.3,34.27,46,28.09A14.43,14.43,0,0,1,50.3,17a16.58,16.58,0,0,1,11.63-5.13,12.36,12.36,0,0,1,8.55,2.42A8.6,8.6,0,0,1,74,20.81a12,12,0,0,1-2.6,7.7A34.2,34.2,0,0,1,60.62,37.74ZM54,42q-7.53,5.85-10,10a14.74,14.74,0,0,0-2.26,8.34A9.19,9.19,0,0,0,44.85,67a9.36,9.36,0,0,0,7,2.42,11.14,11.14,0,0,0,5.68-1.91,12.18,12.18,0,0,0,4.24-4.86,12.42,12.42,0,0,0,1.39-6.12,13.62,13.62,0,0,0-1.93-5.95Q59.44,47.4,54,42Zm4.31-6.76q6.57-5.05,8.5-8a9.28,9.28,0,0,0,1.81-5.44A6.68,6.68,0,0,0,66.26,17a7.26,7.26,0,0,0-5.37-1.82,9,9,0,0,0-8.56,9.41Q52.57,29.68,58.31,35.26Z"/><path class="cls-1" d="M33.83,37q8.27,8.3,8.27,15.62,0,7.08-6,12.77a20.39,20.39,0,0,1-14.58,5.69q-7,0-10.66-3.84a11.91,11.91,0,0,1-3.64-8.37,14.18,14.18,0,0,1,1.51-6.18,20.61,20.61,0,0,1,4.74-6.12Q16,44.26,24.91,38.79q-5.22-5.91-5.22-12.11a14.43,14.43,0,0,1,4.83-10.86,16.67,16.67,0,0,1,11.87-4.57,12.33,12.33,0,0,1,8.42,2.84,8.58,8.58,0,0,1,3.25,6.69,12,12,0,0,1-3,7.56A34.2,34.2,0,0,1,33.83,37ZM27,41q-7.82,5.48-10.47,9.49a14.71,14.71,0,0,0-2.66,8.22,9.19,9.19,0,0,0,2.78,6.77,9.37,9.37,0,0,0,6.89,2.77,11.25,11.25,0,0,0,5.76-1.64,13,13,0,0,0,6.15-10.69,13.55,13.55,0,0,0-1.63-6Q32.18,46.62,27,41Zm4.63-6.54q6.81-4.74,8.88-7.6a9.26,9.26,0,0,0,2.07-5.34,6.73,6.73,0,0,0-2.12-5,7.25,7.25,0,0,0-5.28-2.07,9,9,0,0,0-9,9Q26.18,28.59,31.64,34.45Z"/></g></g></svg>